HIERARCHY
ROOT Hips
{
    OFFSET 0.000000 0.000000 0.000000
    CHANNELS 6 Xposition Yposition Zposition Zrotation Xrotation Yrotation
    JOINT Spine
    {
        OFFSET -0.000000 7.305680 0.000000
        CHANNELS 3 Zrotation Xrotation Yrotation
        JOINT Spine1
        {
            OFFSET -0.000000 20.356600 0.000000
            CHANNELS 3 Zrotation Xrotation Yrotation
            JOINT Neck
            {
                OFFSET -0.000000 22.138500 0.000000
                CHANNELS 3 Zrotation Xrotation Yrotation
                JOINT Head
                {
                    OFFSET -0.000000 13.809501 1.781870
                    CHANNELS 3 Zrotation Xrotation Yrotation
                    End Site
                    {
                        OFFSET -0.000000 17.818779 0.000000
                    }
                }
            }
            JOINT LeftShoulder
            {
                OFFSET 3.599130 17.990000 0.023591
                CHANNELS 3 Zrotation Xrotation Yrotation
                JOINT LeftArm
                {
                    OFFSET 12.560999 0.000000 0.000000
                    CHANNELS 3 Zrotation Xrotation Yrotation
                    JOINT LeftForeArm
                    {
                        OFFSET 22.903299 0.000000 0.000000
                        CHANNELS 3 Zrotation Xrotation Yrotation
                        JOINT LeftHand
                        {
                            OFFSET 21.865299 0.000000 0.000000
                            CHANNELS 3 Zrotation Xrotation Yrotation
                            JOINT LeftHandThumb1
                            {
                                OFFSET 1.853710 -2.106480 2.949080
                                CHANNELS 3 Zrotation Xrotation Yrotation
                                JOINT LeftHandThumb2
                                {
                                    OFFSET 2.049150 0.000000 1.336400
                                    CHANNELS 3 Zrotation Xrotation Yrotation
                                    JOINT LeftHandThumb3
                                    {
                                        OFFSET 2.672810 0.000000 0.000000
                                        CHANNELS 3 Zrotation Xrotation Yrotation
                                        End Site
                                        {
                                            OFFSET 2.381310 0.000000 0.000000
                                        }
                                    }
                                }
                            }
                            JOINT LeftHandIndex1
                            {
                                OFFSET 7.583340 0.000000 2.949080
                                CHANNELS 3 Zrotation Xrotation Yrotation
                                JOINT LeftHandIndex2
                                {
                                    OFFSET 4.454680 0.000000 0.000000
                                    CHANNELS 3 Zrotation Xrotation Yrotation
                                    JOINT LeftHandIndex3
                                    {
                                        OFFSET 2.227340 0.000000 0.000000
                                        CHANNELS 3 Zrotation Xrotation Yrotation
                                        End Site
                                        {
                                            OFFSET 1.984424 0.000000 0.000000
                                        }
                                    }
                                }
                            }
                            JOINT LeftHandMiddle1
                            {
                                OFFSET 7.583340 0.000000 0.977409
                                CHANNELS 3 Zrotation Xrotation Yrotation
                                JOINT LeftHandMiddle2
                                {
                                    OFFSET 4.900150 0.000000 0.000000
                                    CHANNELS 3 Zrotation Xrotation Yrotation
                                    JOINT LeftHandMiddle3
                                    {
                                        OFFSET 2.672810 0.000000 0.000000
                                        CHANNELS 3 Zrotation Xrotation Yrotation
                                        End Site
                                        {
                                            OFFSET 2.381310 0.000000 0.000000
                                        }
                                    }
                                }
                            }
                            JOINT LeftHandRing1
                            {
                                OFFSET 7.162050 0.000000 -0.977409
                                CHANNELS 3 Zrotation Xrotation Yrotation
                                JOINT LeftHandRing2
                                {
                                    OFFSET 4.454680 0.000000 0.000000
                                    CHANNELS 3 Zrotation Xrotation Yrotation
                                    JOINT LeftHandRing3
                                    {
                                        OFFSET 2.227340 0.000000 0.000000
                                        CHANNELS 3 Zrotation Xrotation Yrotation
                                        End Site
                                        {
                                            OFFSET 1.984424 0.000000 0.000000
                                        }
                                    }
                                }
                            }
                            JOINT LeftHandPinky1
                            {
                                OFFSET 6.740750 0.000000 -2.949080
                                CHANNELS 3 Zrotation Xrotation Yrotation
                                JOINT LeftHandPinky2
                                {
                                    OFFSET 3.563750 0.000000 0.000000
                                    CHANNELS 3 Zrotation Xrotation Yrotation
                                    JOINT LeftHandPinky3
                                    {
                                        OFFSET 1.781870 0.000000 0.000000
                                        CHANNELS 3 Zrotation Xrotation Yrotation
                                        End Site
                                        {
                                            OFFSET 1.587538 0.000000 0.000000
                                        }
                                    }
                                }
                            }
                        }
                    }
                }
            }
            JOINT RightShoulder
            {
                OFFSET -3.506990 17.990000 0.023591
                CHANNELS 3 Zrotation Xrotation Yrotation
                JOINT RightArm
                {
                    OFFSET -12.560999 0.000000 0.000000
                    CHANNELS 3 Zrotation Xrotation Yrotation
                    JOINT RightForeArm
                    {
                        OFFSET -22.903299 0.000000 0.000000
                        CHANNELS 3 Zrotation Xrotation Yrotation
                        JOINT RightHand
                        {
                            OFFSET -21.865299 0.000000 0.000000
                            CHANNELS 3 Zrotation Xrotation Yrotation
                            JOINT RightHandThumb1
                            {
                                OFFSET -1.853710 -2.106480 2.949080
                                CHANNELS 3 Zrotation Xrotation Yrotation
                                JOINT RightHandThumb2
                                {
                                    OFFSET -2.049150 0.000000 1.336400
                                    CHANNELS 3 Zrotation Xrotation Yrotation
                                    JOINT RightHandThumb3
                                    {
                                        OFFSET -2.672810 0.000000 0.000000
                                        CHANNELS 3 Zrotation Xrotation Yrotation
                                        End Site
                                        {
                                            OFFSET -2.381310 0.000000 0.000000
                                        }
                                    }
                                }
                            }
                            JOINT RightHandIndex1
                            {
                                OFFSET -7.583340 0.000000 2.949080
                                CHANNELS 3 Zrotation Xrotation Yrotation
                                JOINT RightHandIndex2
                                {
                                    OFFSET -4.454680 0.000000 0.000000
                                    CHANNELS 3 Zrotation Xrotation Yrotation
                                    JOINT RightHandIndex3
                                    {
                                        OFFSET -2.227340 0.000000 0.000000
                                        CHANNELS 3 Zrotation Xrotation Yrotation
                                        End Site
                                        {
                                            OFFSET -1.984424 0.000000 0.000000
                                        }
                                    }
                                }
                            }
                            JOINT RightHandMiddle1
                            {
                                OFFSET -7.583340 0.000000 0.977409
                                CHANNELS 3 Zrotation Xrotation Yrotation
                                JOINT RightHandMiddle2
                                {
                                    OFFSET -4.900150 0.000000 0.000000
                                    CHANNELS 3 Zrotation Xrotation Yrotation
                                    JOINT RightHandMiddle3
                                    {
                                        OFFSET -2.672810 0.000000 0.000000
                                        CHANNELS 3 Zrotation Xrotation Yrotation
                                        End Site
                                        {
                                            OFFSET -2.381310 0.000000 0.000000
                                        }
                                    }
                                }
                            }
                            JOINT RightHandRing1
                            {
                                OFFSET -7.162050 0.000000 -0.977409
                                CHANNELS 3 Zrotation Xrotation Yrotation
                                JOINT RightHandRing2
                                {
                                    OFFSET -4.454680 0.000000 0.000000
                                    CHANNELS 3 Zrotation Xrotation Yrotation
                                    JOINT RightHandRing3
                                    {
                                        OFFSET -2.227340 0.000000 0.000000
                                        CHANNELS 3 Zrotation Xrotation Yrotation
                                        End Site
                                        {
                                            OFFSET -1.984424 0.000000 0.000000
                                        }
                                    }
                                }
                            }
                            JOINT RightHandPinky1
                            {
                                OFFSET -6.740750 0.000000 -2.949080
                                CHANNELS 3 Zrotation Xrotation Yrotation
                                JOINT RightHandPinky2
                                {
                                    OFFSET -3.563750 0.000000 0.000000
                                    CHANNELS 3 Zrotation Xrotation Yrotation
                                    JOINT RightHandPinky3
                                    {
                                        OFFSET -1.781870 0.000000 0.000000
                                        CHANNELS 3 Zrotation Xrotation Yrotation
                                        End Site
                                        {
                                            OFFSET -1.587538 0.000000 0.000000
                                        }
                                    }
                                }
                            }
                        }
                    }
                }
            }
        }
    }
    JOINT LeftUpLeg
    {
        OFFSET 8.909360 0.000000 0.000000
        CHANNELS 3 Zrotation Xrotation Yrotation
        JOINT LeftLeg
        {
            OFFSET -0.000000 -38.765602 0.000000
            CHANNELS 3 Zrotation Xrotation Yrotation
            JOINT LeftFoot
            {
                OFFSET -0.000000 -35.245003 0.000000
                CHANNELS 3 Zrotation Xrotation Yrotation
                JOINT LeftToeBase
                {
                    OFFSET -0.000000 -5.791090 13.364000
                    CHANNELS 3 Zrotation Xrotation Yrotation
                    End Site
                    {
                        OFFSET -0.000000 0.000000 3.563756
                    }
                }
            }
        }
    }
    JOINT RightUpLeg
    {
        OFFSET -8.909360 0.000000 0.000000
        CHANNELS 3 Zrotation Xrotation Yrotation
        JOINT RightLeg
        {
            OFFSET -0.000000 -38.765602 0.000000
            CHANNELS 3 Zrotation Xrotation Yrotation
            JOINT RightFoot
            {
                OFFSET -0.000000 -35.245003 0.000000
                CHANNELS 3 Zrotation Xrotation Yrotation
                JOINT RightToeBase
                {
                    OFFSET -0.000000 -5.791090 13.364000
                    CHANNELS 3 Zrotation Xrotation Yrotation
                    End Site
                    {
                        OFFSET -0.000000 0.000000 3.563756
                    }
                }
            }
        }
    }
}
MOTION
Frames:    5
Frame Time:    0.033333
-2.146493    81.375076    114.364471    0.250311    0.516560    1.947863    0.437720    -1.843501    -1.240099    -1.759686    4.871146    -0.341064    2.074626    -2.870879    -1.601895    1.709858    -7.376377    -1.543294    1.153126    3.087550    -13.087505    -87.743294    29.140970    0.034037    13.279193    -4.347273    -1.580643    -12.341637    -35.010281    5.111530    0.496705    1.875872    2.866948    -0.000000    0.000000    2.630593    -0.000000    0.000000    5.261186    -16.181925    4.188613    -14.127969    -33.402401    0.000000    0.000000    -16.701199    0.000000    0.000000    -24.966053    0.735579    -5.042404    -49.960606    0.000000    0.000000    -24.980307    0.000000    0.000000    -33.115543    -4.018016    3.430891    -66.518829    0.000000    0.000000    -33.259415    0.000000    0.000000    -40.776230    -10.070442    11.461130    -83.578796    0.000000    0.000000    -41.789398    0.000000    0.000000    -3.792604    -1.571574    1.668905    97.574432    51.818695    -10.701178    -11.887565    -33.171558    1.806037    19.820103    -48.073845    3.427113    -1.082036    -2.265693    2.774737    0.000000    0.000000    0.000000    0.000000    0.000000    0.000000    12.211267    0.000000    -0.000000    24.422535    0.000000    -0.000000    12.211267    0.000000    -0.000000    18.873663    -1.016453    -2.114027    37.800037    0.000000    -0.000000    18.900015    0.000000    -0.000000    25.497927    -2.270654    -4.097002    51.177536    0.000000    -0.000000    25.588774    0.000000    -0.000000    32.282154    -3.792402    -5.976969    64.960426    0.000000    -0.000000    32.480209    0.000000    -0.000000    -0.449708    3.471802    -0.672886    1.637656    -5.936987    21.629339    -3.587097    3.039968    -18.134617    0.166893    -2.394895    -0.737206    -1.023814    2.960315    6.829669    -0.688020    -3.029183    -12.967770    3.013468    -0.594699    6.059811    -0.284686    -2.295195    0.217552    
-2.149874    81.373756    114.385376    0.240234    0.542407    1.903175    0.366934    -1.859704    -1.291441    -1.684084    4.908387    -0.360512    2.067381    -2.866899    -1.575105    1.702881    -7.543988    -1.513379    1.142883    3.107197    -13.089798    -87.782188    29.074770    0.054356    13.284099    -4.321587    -1.594770    -12.316750    -35.028942    5.073532    0.488680    1.887940    2.872095    -0.000000    0.000000    2.639894    -0.000000    0.000000    5.279787    -16.185040    4.172828    -14.074190    -33.400734    0.000000    0.000000    -16.700367    0.000000    0.000000    -24.963270    0.727939    -5.015560    -49.954586    0.000000    0.000000    -24.977297    0.000000    0.000000    -33.110416    -4.013026    3.432736    -66.508453    0.000000    0.000000    -33.254219    0.000000    0.000000    -40.772942    -10.048972    11.438876    -83.563927    0.000000    0.000000    -41.781963    0.000000    0.000000    -3.785697    -1.561751    1.638464    97.515167    51.812199    -10.660235    -11.897138    -33.239925    1.824199    19.793297    -48.132542    3.413310    -1.028783    -2.248875    2.785748    0.000000    0.000000    0.000000    0.000000    0.000000    0.000000    12.358482    0.000000    -0.000000    24.716967    0.000000    -0.000000    12.358482    0.000000    -0.000000    18.984873    -1.019704    -2.113728    38.022499    0.000000    -0.000000    19.011251    0.000000    -0.000000    25.573036    -2.275853    -4.096826    51.328041    0.000000    -0.000000    25.664022    0.000000    -0.000000    32.319992    -3.798407    -5.977667    65.036774    0.000000    -0.000000    32.518387    0.000000    -0.000000    -0.439591    3.469337    -0.656488    1.637540    -5.941753    21.583769    -3.572067    3.020681    -18.062109    0.167496    -2.408322    -0.740683    -1.013160    2.942090    6.833171    -0.687736    -3.025931    -12.936254    3.008841    -0.604459    6.073061    -0.283615    -2.300850    0.215250    
-2.152106    81.371727    114.409935    0.231340    0.565941    1.846732    0.308027    -1.881326    -1.332796    -1.628721    4.941446    -0.375848    2.059800    -2.882450    -1.549885    1.692022    -7.613562    -1.486684    1.127054    3.129776    -13.080679    -87.807190    29.038866    0.075459    13.287098    -4.318442    -1.587920    -12.295854    -35.060116    5.023177    0.500116    1.892389    2.891338    -0.000000    0.000000    2.658770    -0.000000    0.000000    5.317542    -16.154999    4.146915    -14.016753    -33.330021    0.000000    0.000000    -16.665010    0.000000    0.000000    -24.945810    0.709957    -4.979756    -49.918457    0.000000    0.000000    -24.959234    0.000000    0.000000    -33.108551    -4.022066    3.447358    -66.506905    0.000000    0.000000    -33.253460    0.000000    0.000000    -40.790745    -10.048306    11.431149    -83.598022    0.000000    0.000000    -41.799015    0.000000    0.000000    -3.782617    -1.566470    1.616836    97.489883    51.777851    -10.652596    -11.902748    -33.291344    1.845596    19.793709    -48.179905    3.414202    -0.985999    -2.229392    2.785563    0.000000    0.000000    0.000000    0.000000    0.000000    0.000000    12.422734    0.000000    -0.000000    24.845470    0.000000    -0.000000    12.422734    0.000000    -0.000000    19.031590    -1.021468    -2.114650    38.115993    0.000000    -0.000000    19.058002    0.000000    -0.000000    25.602146    -2.278865    -4.098849    51.386532    0.000000    -0.000000    25.693266    0.000000    -0.000000    32.330887    -3.802242    -5.981149    65.059204    0.000000    -0.000000    32.529602    0.000000    -0.000000    -0.433046    3.476740    -0.644556    1.642373    -5.953679    21.594257    -3.573154    3.005244    -18.030378    0.166048    -2.413637    -0.737685    -1.005058    2.932295    6.841466    -0.687300    -3.032978    -12.905567    3.004083    -0.609667    6.091238    -0.283067    -2.306078    0.213829    
-2.154054    81.368927    114.437164    0.223551    0.589678    1.777240    0.260160    -1.915772    -1.364166    -1.593071    4.981174    -0.387151    2.042784    -2.884501    -1.509890    1.699659    -7.661723    -1.446956    1.107005    3.144934    -13.062573    -87.816803    29.028145    0.098805    13.287135    -4.333027    -1.565503    -12.276826    -35.098476    4.978137    0.514003    1.891124    2.906521    -0.000000    0.000000    2.672149    -0.000000    0.000000    5.344298    -16.113310    4.121645    -13.971369    -33.237099    0.000000    0.000000    -16.618551    0.000000    0.000000    -24.937263    0.686415    -4.943733    -49.899788    0.000000    0.000000    -24.949894    0.000000    0.000000    -33.134129    -4.047483    3.471872    -66.562469    0.000000    0.000000    -33.281235    0.000000    0.000000    -40.852882    -10.078856    11.440191    -83.730087    0.000000    0.000000    -41.865044    0.000000    0.000000    -3.782779    -1.578625    1.604412    97.496696    51.751656    -10.670857    -11.915794    -33.329586    1.873840    19.796225    -48.236980    3.403548    -0.947402    -2.208854    2.780906    0.000000    0.000000    0.000000    0.000000    0.000000    0.000000    12.447807    0.000000    -0.000000    24.895615    0.000000    -0.000000    12.447807    0.000000    -0.000000    19.049509    -1.021542    -2.113804    38.151802    0.000000    -0.000000    19.075899    0.000000    -0.000000    25.612932    -2.278669    -4.097309    51.407986    0.000000    -0.000000    25.703993    0.000000    -0.000000    32.334335    -3.801449    -5.979123    65.065872    0.000000    -0.000000    32.532936    0.000000    -0.000000    -0.429193    3.492070    -0.628312    1.649897    -5.975272    21.643272    -3.577432    2.992681    -18.027456    0.164450    -2.414078    -0.733603    -0.998418    2.923410    6.852281    -0.687198    -3.041366    -12.869188    3.005463    -0.616306    6.112050    -0.283347    -2.308470    0.214030    
-2.155988    81.366089    114.464882    0.216724    0.611267    1.699714    0.215164    -1.953037    -1.389372    -1.562471    5.027266    -0.395970    2.009397    -2.858197    -1.442530    1.739063    -7.765010    -1.381408    1.088450    3.160304    -13.043907    -87.805267    29.035538    0.102229    13.269474    -4.359746    -1.530799    -12.253082    -35.154556    4.939788    0.524701    1.885635    2.912675    -0.000000    0.000000    2.676032    -0.000000    0.000000    5.352065    -16.069744    4.108696    -13.967525    -33.146515    0.000000    0.000000    -16.573259    0.000000    0.000000    -24.941528    0.670476    -4.932801    -49.907139    0.000000    0.000000    -24.953562    0.000000    0.000000    -33.184978    -4.074386    3.485646    -66.667740    0.000000    0.000000    -33.333874    0.000000    0.000000    -40.950478    -10.123774    11.450874    -83.936249    0.000000    0.000000    -41.968128    0.000000    0.000000    -3.792852    -1.579049    1.595549    97.494278    51.739399    -10.661273    -11.932892    -33.360886    1.899413    19.788149    -48.300255    3.376297    -0.901120    -2.185388    2.777060    0.000000    0.000000    0.000000    0.000000    0.000000    0.000000    12.478254    0.000000    -0.000000    24.956509    0.000000    -0.000000    12.478254    0.000000    -0.000000    19.074446    -1.019324    -2.107419    38.201382    0.000000    -0.000000    19.100697    0.000000    -0.000000    25.632565    -2.273329    -4.084948    51.446266    0.000000    -0.000000    25.723133    0.000000    -0.000000    32.348740    -3.792030    -5.961144    65.092499    0.000000    -0.000000    32.546249    0.000000    -0.000000    -0.426371    3.516903    -0.594329    1.656155    -6.009787    21.669350    -3.582024    2.983873    -18.009598    0.163554    -2.410314    -0.730741    -0.994031    2.910289    6.864683    -0.683130    -3.037902    -12.828089    3.012200    -0.631111    6.134307    -0.283999    -2.305513    0.215381    
